<svg width="126" height="48" viewBox="0 0 126 48" fill="none" xmlns="http://www.w3.org/2000/svg">
<rect width="126" height="48" fill="white"/>
<circle cx="18.3333" cy="19.3333" r="10.3333" fill="#FF7158"/>
<path d="M23.1242 32.2696H30.3388V33.7576H21.5461V17.9758H23.1242V32.2696ZM33.8837 19.7794C33.6733 19.9898 33.4178 20.095 33.1172 20.095C32.8166 20.095 32.561 19.9898 32.3506 19.7794C32.1402 19.569 32.035 19.3135 32.035 19.0129C32.035 18.7122 32.1402 18.4567 32.3506 18.2463C32.561 18.0359 32.8166 17.9307 33.1172 17.9307C33.4178 17.9307 33.6733 18.0359 33.8837 18.2463C34.0941 18.4567 34.1994 18.7122 34.1994 19.0129C34.1994 19.3135 34.0941 19.569 33.8837 19.7794ZM32.3732 33.7576V22.4849H33.8612V33.7576H32.3732ZM42.2944 22.2143C43.6622 22.2143 44.7368 22.6352 45.5184 23.4769C46.315 24.3035 46.7133 25.4233 46.7133 26.8361V33.7576H45.2253V26.8361C45.2253 25.8291 44.9548 25.0475 44.4137 24.4914C43.8876 23.9353 43.1361 23.6572 42.1591 23.6572C41.0769 23.6572 40.1977 24.0029 39.5213 24.6943C38.8449 25.3707 38.5068 26.4228 38.5068 27.8507V33.7576H37.0188V22.4849H38.5068V24.2434C39.3485 22.8907 40.611 22.2143 42.2944 22.2143ZM58.6989 33.7576H56.7149L51.0785 28.3241V33.7576H49.5905V17.9758H51.0785V27.4674L56.4443 22.4849H58.4734L52.6567 27.8958L58.6989 33.7576ZM64.8163 22.2143C66.4846 22.2143 67.8298 22.808 68.8519 23.9954C69.889 25.1678 70.4075 26.5581 70.4075 28.1663C70.4075 28.3316 70.3925 28.5646 70.3624 28.8652H60.465C60.6153 30.0075 61.0963 30.9169 61.9079 31.5932C62.7346 32.2546 63.7491 32.5852 64.9515 32.5852C65.8083 32.5852 66.5447 32.4124 67.161 32.0667C67.7923 31.7059 68.2657 31.24 68.5813 30.6689L69.889 31.4354C69.393 32.232 68.7166 32.8633 67.8599 33.3292C67.0032 33.7952 66.0262 34.0281 64.929 34.0281C63.1554 34.0281 61.7125 33.472 60.6003 32.3598C59.488 31.2475 58.9319 29.8347 58.9319 28.1212C58.9319 26.4378 59.4805 25.0325 60.5777 23.9052C61.6749 22.7779 63.0878 22.2143 64.8163 22.2143ZM64.8163 23.6572C63.6439 23.6572 62.6594 24.0104 61.8628 24.7169C61.0812 25.4083 60.6153 26.3101 60.465 27.4223H68.8744C68.7241 26.2349 68.2657 25.3106 67.4992 24.6492C66.7326 23.9879 65.8383 23.6572 64.8163 23.6572ZM82.469 17.9758H83.957V33.7576H82.469V31.5481C81.4319 33.2015 79.9138 34.0281 77.9148 34.0281C76.3066 34.0281 74.9313 33.457 73.789 32.3147C72.6617 31.1724 72.0981 29.7746 72.0981 28.1212C72.0981 26.4679 72.6617 25.0701 73.789 23.9278C74.9313 22.7855 76.3066 22.2143 77.9148 22.2143C79.9138 22.2143 81.4319 23.041 82.469 24.6943V17.9758ZM74.8712 31.3001C75.7279 32.1569 76.78 32.5852 78.0275 32.5852C79.2751 32.5852 80.3272 32.1569 81.1839 31.3001C82.0406 30.4284 82.469 29.3687 82.469 28.1212C82.469 26.8737 82.0406 25.8216 81.1839 24.9649C80.3272 24.0931 79.2751 23.6572 78.0275 23.6572C76.78 23.6572 75.7279 24.0931 74.8712 24.9649C74.0144 25.8216 73.5861 26.8737 73.5861 28.1212C73.5861 29.3687 74.0144 30.4284 74.8712 31.3001Z" fill="#A91F5B"/>
<path d="M100.274 31.7059C98.6809 33.2841 96.742 34.0732 94.4574 34.0732C92.1728 34.0732 90.2339 33.2841 88.6406 31.7059C87.0625 30.1127 86.2734 28.1663 86.2734 25.8667C86.2734 23.567 87.0625 21.6281 88.6406 20.0499C90.2339 18.4567 92.1728 17.6601 94.4574 17.6601C96.742 17.6601 98.6809 18.4567 100.274 20.0499C101.867 21.6281 102.664 23.567 102.664 25.8667C102.664 28.1663 101.867 30.1127 100.274 31.7059ZM90.8275 29.5867C91.8045 30.5486 93.0145 31.0296 94.4574 31.0296C95.9003 31.0296 97.1102 30.5486 98.0872 29.5867C99.0642 28.6097 99.5526 27.3697 99.5526 25.8667C99.5526 24.3636 99.0642 23.1236 98.0872 22.1467C97.1102 21.1697 95.9003 20.6812 94.4574 20.6812C93.0145 20.6812 91.8045 21.1697 90.8275 22.1467C89.8506 23.1236 89.3621 24.3636 89.3621 25.8667C89.3621 27.3697 89.8506 28.6097 90.8275 29.5867ZM110.983 22.1692C112.215 22.1692 113.23 22.5826 114.027 23.4092C114.838 24.2359 115.244 25.3782 115.244 26.8361V33.7576H112.336V27.1969C112.336 26.4453 112.133 25.8742 111.727 25.4834C111.321 25.0776 110.78 24.8747 110.104 24.8747C109.352 24.8747 108.751 25.1076 108.3 25.5736C107.849 26.0395 107.624 26.7384 107.624 27.6703V33.7576H104.715V22.4849H107.624V23.7474C108.33 22.6953 109.45 22.1692 110.983 22.1692Z" fill="#FF7158"/>
<mask id="mask0" mask-type="alpha" maskUnits="userSpaceOnUse" x="8" y="9" width="21" height="21">
<circle cx="18.3333" cy="19.3333" r="10.3333" fill="white"/>
</mask>
<g mask="url(#mask0)">
<path d="M23.1242 32.2696H30.3388V33.7576H21.5461V17.9758H23.1242V32.2696ZM33.8837 19.7794C33.6733 19.9898 33.4178 20.095 33.1172 20.095C32.8166 20.095 32.561 19.9898 32.3506 19.7794C32.1402 19.569 32.035 19.3135 32.035 19.0129C32.035 18.7122 32.1402 18.4567 32.3506 18.2463C32.561 18.0359 32.8166 17.9307 33.1172 17.9307C33.4178 17.9307 33.6733 18.0359 33.8837 18.2463C34.0941 18.4567 34.1994 18.7122 34.1994 19.0129C34.1994 19.3135 34.0941 19.569 33.8837 19.7794ZM32.3732 33.7576V22.4849H33.8612V33.7576H32.3732ZM42.2944 22.2143C43.6622 22.2143 44.7368 22.6352 45.5184 23.4769C46.315 24.3035 46.7133 25.4233 46.7133 26.8361V33.7576H45.2253V26.8361C45.2253 25.8291 44.9548 25.0475 44.4137 24.4914C43.8876 23.9353 43.1361 23.6572 42.1591 23.6572C41.0769 23.6572 40.1977 24.0029 39.5213 24.6943C38.8449 25.3707 38.5068 26.4228 38.5068 27.8507V33.7576H37.0188V22.4849H38.5068V24.2434C39.3485 22.8907 40.611 22.2143 42.2944 22.2143ZM58.6989 33.7576H56.7149L51.0785 28.3241V33.7576H49.5905V17.9758H51.0785V27.4674L56.4443 22.4849H58.4734L52.6567 27.8958L58.6989 33.7576ZM64.8163 22.2143C66.4846 22.2143 67.8298 22.808 68.8519 23.9954C69.889 25.1678 70.4075 26.5581 70.4075 28.1663C70.4075 28.3316 70.3925 28.5646 70.3624 28.8652H60.465C60.6153 30.0075 61.0963 30.9169 61.9079 31.5932C62.7346 32.2546 63.7491 32.5852 64.9515 32.5852C65.8083 32.5852 66.5447 32.4124 67.161 32.0667C67.7923 31.7059 68.2657 31.24 68.5813 30.6689L69.889 31.4354C69.393 32.232 68.7166 32.8633 67.8599 33.3292C67.0032 33.7952 66.0262 34.0281 64.929 34.0281C63.1554 34.0281 61.7125 33.472 60.6003 32.3598C59.488 31.2475 58.9319 29.8347 58.9319 28.1212C58.9319 26.4378 59.4805 25.0325 60.5777 23.9052C61.6749 22.7779 63.0878 22.2143 64.8163 22.2143ZM64.8163 23.6572C63.6439 23.6572 62.6594 24.0104 61.8628 24.7169C61.0812 25.4083 60.6153 26.3101 60.465 27.4223H68.8744C68.7241 26.2349 68.2657 25.3106 67.4992 24.6492C66.7326 23.9879 65.8383 23.6572 64.8163 23.6572ZM82.469 17.9758H83.957V33.7576H82.469V31.5481C81.4319 33.2015 79.9138 34.0281 77.9148 34.0281C76.3066 34.0281 74.9313 33.457 73.789 32.3147C72.6617 31.1724 72.0981 29.7746 72.0981 28.1212C72.0981 26.4679 72.6617 25.0701 73.789 23.9278C74.9313 22.7855 76.3066 22.2143 77.9148 22.2143C79.9138 22.2143 81.4319 23.041 82.469 24.6943V17.9758ZM74.8712 31.3001C75.7279 32.1569 76.78 32.5852 78.0275 32.5852C79.2751 32.5852 80.3272 32.1569 81.1839 31.3001C82.0406 30.4284 82.469 29.3687 82.469 28.1212C82.469 26.8737 82.0406 25.8216 81.1839 24.9649C80.3272 24.0931 79.2751 23.6572 78.0275 23.6572C76.78 23.6572 75.7279 24.0931 74.8712 24.9649C74.0144 25.8216 73.5861 26.8737 73.5861 28.1212C73.5861 29.3687 74.0144 30.4284 74.8712 31.3001ZM100.274 31.7059C98.6809 33.2841 96.742 34.0732 94.4574 34.0732C92.1728 34.0732 90.2339 33.2841 88.6406 31.7059C87.0625 30.1127 86.2734 28.1663 86.2734 25.8667C86.2734 23.567 87.0625 21.6281 88.6406 20.0499C90.2339 18.4567 92.1728 17.6601 94.4574 17.6601C96.742 17.6601 98.6809 18.4567 100.274 20.0499C101.867 21.6281 102.664 23.567 102.664 25.8667C102.664 28.1663 101.867 30.1127 100.274 31.7059ZM90.8275 29.5867C91.8045 30.5486 93.0145 31.0296 94.4574 31.0296C95.9003 31.0296 97.1102 30.5486 98.0872 29.5867C99.0642 28.6097 99.5526 27.3697 99.5526 25.8667C99.5526 24.3636 99.0642 23.1236 98.0872 22.1467C97.1102 21.1697 95.9003 20.6812 94.4574 20.6812C93.0145 20.6812 91.8045 21.1697 90.8275 22.1467C89.8506 23.1236 89.3621 24.3636 89.3621 25.8667C89.3621 27.3697 89.8506 28.6097 90.8275 29.5867ZM110.983 22.1692C112.215 22.1692 113.23 22.5826 114.027 23.4092C114.838 24.2359 115.244 25.3782 115.244 26.8361V33.7576H112.336V27.1969C112.336 26.4453 112.133 25.8742 111.727 25.4834C111.321 25.0776 110.78 24.8747 110.104 24.8747C109.352 24.8747 108.751 25.1076 108.3 25.5736C107.849 26.0395 107.624 26.7384 107.624 27.6703V33.7576H104.715V22.4849H107.624V23.7474C108.33 22.6953 109.45 22.1692 110.983 22.1692Z" fill="white"/>
</g>
</svg>
